<svg width="41" height="41" viewBox="0 0 41 41" fill="none" xmlns="http://www.w3.org/2000/svg">
<path fill-rule="evenodd" clip-rule="evenodd" d="M38.4011 2.45297C37.7099 1.73548 36.8816 1.16487 35.9657 0.775144C35.0497 0.38542 34.0649 0.18457 33.0699 0.18457C32.0748 0.18457 31.09 0.38542 30.1741 0.775144C29.2582 1.16487 28.4299 1.73548 27.7387 2.45297L3.02296 27.7889C1.6049 29.2536 0.811768 31.2144 0.811768 33.2555C0.811768 35.2966 1.6049 37.2575 3.02296 38.7222C3.71666 39.4353 4.54573 40.0021 5.46132 40.389C6.37691 40.776 7.3605 40.9753 8.35415 40.9753C9.34779 40.9753 10.3314 40.776 11.247 40.389C12.1626 40.0021 12.9916 39.4353 13.6853 38.7222L38.4011 13.3863C39.8191 11.9216 40.6123 9.96073 40.6123 7.91964C40.6123 5.87854 39.8191 3.91771 38.4011 2.45297Z" fill="white"/>
</svg>
